<svg xmlns="http://www.w3.org/2000/svg" xml:space="preserve" width="1em" height="1em" viewBox="0 0 200 100"><path d="m67.584 69.315 9.072-4.717" style="fill:navy;stroke-width:.360517"/><path d="M67.005 64.06c2.76 1.095 5.425 1.375 8.17.91.814-.139 1.95-.39 2.647-.728.166-.081.56-.377.507-.228-.41 1.168-1.284 2.531-1.802 3.276-4.518 6.482-11.104 11.523-20.44 11.523" style="fill:#03458e;fill-opacity:1;stroke-width:.401187"/><ellipse cx="41.72" cy="52.958" rx="30.834" ry="30.327" style="fill:#03458e;fill-opacity:1;stroke-width:.371288"/><path d="M30.172 52.543c-1.143-11.23 15.235-12.76 19.186-4.764 1.786 3.616.893 7.011-1.338 10.517-.658 1.037-2.772 1.786-3.274 2.888-.26.572.087 1.585.643 2.075.94.83 2.06 1.322 1.048 1.542-.268.057-11.039 1.235-10.331 1.127-.322-1.67 2.168-5.177.469-5.965a26 26 0 0 1-1.831-.986" style="fill:#fbf5e6;fill-opacity:1;stroke-width:.360517"/><path d="M31.016 52.466c-.646-.02-2.09.578-2.71.742-.816.216-4.003 1.025-4.4 1.343-.268.215-.226.786-.278 1.088-.376 2.13 2.594 3.042 4.716 3.301q.015-.019.033-.038c.503-.503 1.015-.616 1.624-1.073.76-.568 2.03-.944 2.944-1.165-.915.221-2.185.596-2.943 1.165-.61.457-1.122.57-1.625 1.073q-.018.018-.033.037c-.581.655.812 1.25 1.29 1.25 2.158 0 8.055-.452 8.36-3.314.027-1.588-1.993-2.762-3.388-3.482-2.025-1.043-2.84-.902-3.59-.927" style="fill:#bd2222;fill-opacity:1;stroke-width:.360517"/><path d="M38.584 61.51c-1.935.822-2.993 2.022-4.308 3.995-1.57 2.354-.11 10.159 2.254 11.788 5.173 3.563 16.914 4.171 22.33 1.013 2.346-1.366 3.243-1.826 5.498-4.599 2.007-2.468 5.815-8.543 5.394-8.886-2.755-2.243-16.904-4.3-20.469-2.967-3.612 1.35-2.958.944-6.116.944" style="fill:#fbf5e6;fill-opacity:1;stroke-width:.360517"/><path d="M44.073 53.391a1.495 1.495 0 0 1-1.492 1.494 1.495 1.495 0 0 1-1.496-1.49 1.495 1.495 0 0 1 1.488-1.498 1.495 1.495 0 0 1 1.5 1.486l-1.495.008z" style="fill:#03458e;fill-opacity:1;stroke-width:.360517"/><circle cx="101.321" cy="262.871" r=".016" style="fill:#bd2222;stroke:#000;stroke-width:.264583"/><path d="M77.745 42.052v2.41c-.04.91-.083 1.818-.108 2.73q-.05 1.178.041 2.356.105 1.084.372 2.139c.164.617.38 1.217.618 1.81.313.689.664 1.358 1.106 1.973a9.3 9.3 0 0 0 3.127 2.436c.582.278 1.203.4 1.84.45.868.06 1.636-.08 2.454-.345.704-.237 1.324-.637 1.902-1.094a6.6 6.6 0 0 0 1.39-1.641c.414-.78.7-1.621.962-2.46.276-.886.422-1.793.498-2.714a35 35 0 0 0 .063-2.41c.022-1.102-.095-2.2-.232-3.292a14 14 0 0 0-.667-2.725c-.212-.532-.415-1.07-.638-1.599a14 14 0 0 0-.529-1.062c-.01-.045-.334-.539-.19-.336-.212-.324-.191-.33-.423-.576-.046-.05-.19-.198-.15-.143.164.204.262.266.386.485l-.438-.582c-2.088-2-4.917.954-2.828 2.953-.657-1.004.28.62.418.883.196.43.34.883.527 1.315.218.616.385 1.253.475 1.9.117.919.22 1.841.2 2.77-.002.697-.003 1.393-.05 2.09a8.2 8.2 0 0 1-.326 1.827 16 16 0 0 1-.574 1.59c-.11.226-.296.4-.477.572-.176.18-.418.297-.65.39-.295.18-1.013.133-1.147.082a4.8 4.8 0 0 1-.835-.495c-.304-.199-.55-.466-.811-.715-.211-.227-.752-1.266-1.05-2.385-.344-1.199-.299-2.844-.276-3.34.025-.947.074-1.892.11-2.838v-2.409c0-2.891-4.089-2.891-4.089 0m26.456-6.563c-.46-.345-.989-.55-1.531-.727-.529-.171-1.08-.24-1.631-.279a12 12 0 0 0-.831-.02c-.624.008-1.195.22-1.751.48a6.8 6.8 0 0 0-1.333.832c-.549.399-.924.962-1.263 1.537a14 14 0 0 0-.925 2.128c-.337 1.07-.522 2.18-.668 3.288a30 30 0 0 0-.128 3.622c.03.79.078 1.602.316 2.362.05.159.113.311.17.466.276.661.68 1.243 1.161 1.77.563.567 1.281.935 2.01 1.24.65.26 1.336.348 2.03.35.77-.06 1.434-.362 2.03-.841.573-.513 1.012-1.157 1.441-1.79.63-.94 1.056-1.988 1.373-3.07.235-.95.38-1.92.472-2.892.063-.755.13-1.51.168-2.268.028-.59.035-1.185.036-1.778v-1.778c0-1.46.04-.174-4.089-.076-.023 0 0 .045 0 .068v.095c0 .649-.053 1.296-.079 1.945a111 111 0 0 0-.052 3.086q-.004 1.286-.003 2.573a8.2 8.2 0 0 0 .21 2.211c.172.69.451 1.344.796 1.963.361.574.813 1.084 1.301 1.552.389.36.785.657 1.252.912.292.143.58.293.88.418a5.5 5.5 0 0 0 1.84.35c2.89.07 2.99-4.018.098-4.087q-.073 0-.15-.008c-.102-.014-.203-.024-.3-.064l.043.023c-.202-.077-.379-.21-.58-.29a2 2 0 0 1 .138.117c-.148-.115-.284-.246-.432-.361-.214-.173-.372-.41-.554-.614-.185-.237-.244-.57-.35-.843-.115-.42-.118-.848-.103-1.28q0-1.276.003-2.549a106 106 0 0 1 .05-2.949c.027-.701.081-1.403.081-2.106v-.095c0-.022.022-.067 0-.069-4.126-.095-4.089-1.38-4.089.08v1.76c0 .531-.005 1.06-.031 1.59-.034.699-.098 1.395-.155 2.093q-.097 1.085-.333 2.149a6.7 6.7 0 0 1-.834 1.91 14 14 0 0 1-.687.948c.248-.144.186-.109.45-.122.324.045-.317-.018-.346-.057-.135-.045-.104-.03-.259-.11l-.183-.099c-.038-.02-.07-.056-.114-.064-.07-.01.134.11.007.031a1.8 1.8 0 0 1-.34-.47c-.078-.103-.092-.272-.114-.39a6 6 0 0 1-.091-1.027 27 27 0 0 1 .095-3.012c.11-.848.245-1.696.49-2.514.153-.479.369-.935.59-1.385.157-.293-.062.108.159-.261.004-.007.012-.028.005-.024-.033.02-.05.075-.087.069-.068-.01.218-.126.155-.135.177-.14.35-.271.559-.357l.157-.074c-.004-.022-.08.011-.068-.008.012-.02.29-.014-.069-.011q.278-.003.554.01c.216.015.433.028.64.09.492.16.078.006.241.069.044.016.082.048.128.063.013.004-.019-.017-.027-.025 2.312 1.735 4.766-1.536 2.453-3.27zm15.677 3.715c-.018-.42.019-.839.054-1.259.055-.62.065-1.241.074-1.862.01-.904-.208-1.667-.653-2.446-.456-.73-1.105-1.167-1.868-1.515a3.6 3.6 0 0 0-2.298-.113c-.2.054-.396.13-.593.196a7.5 7.5 0 0 0-2.532 1.718c-.15.157-.286.324-.428.485-.989 1.316-1.384 2.73-1.678 4.32-.23 1.438-.251 2.895-.235 4.347.027 1.17.075 2.35.32 3.5.044.208.103.415.153.622a9.3 9.3 0 0 0 1.364 2.652c.349.47.481.586.879 1.004.772.782 1.707 1.342 2.698 1.797.89.451 1.867.589 2.848.661a11 11 0 0 0 2.687-.22c.549-.135 1.107-.315 1.588-.622.12-.076.233-.163.35-.245.348-.26.629-.59.912-.913l.164-.188c1.89-2.187-1.205-4.86-3.096-2.674l-.146.17c-.151.174-.256.314-.327.362.271-.145-.163.105-.234.098-.532.106-1.07.176-1.615.153-.504-.033-.995-.058-1.448-.308-.526-.232-1.026-.51-1.44-.913a5.3 5.3 0 0 1-1.223-1.83c-.282-1.026-.324-2.099-.345-3.157-.016-1.194-.003-2.392.17-3.576.141-.821.328-1.644.753-2.372.343-.42.736-.78 1.229-1.02q.07-.032.144-.063c.034-.014.143-.023.108-.036-.1-.036-.214-.027-.32-.04.02 0 .062.009.027-.018-.163-.115.04.016.042.015.048-.008-.2-.187-.146-.224.014.023.017.071.045.071.025 0-.016-.046-.016-.07.003-.076.155.513.07.337-.006.532-.013 1.063-.06 1.592a15 15 0 0 0-.067 1.584c0 2.892 4.089 2.892 4.089 0m6.014-13.324c-.051 1.866-.019 3.736.028 5.604.106 2.748.276 5.494.455 8.238.166 3.189.291 6.377.49 9.564.096 1.464.179 2.928.352 4.385q.054.433.092.867c.255 2.88 4.328 2.52 4.075-.36a29 29 0 0 0-.107-.988c-.163-1.382-.237-2.77-.33-4.159-.2-3.188-.324-6.382-.491-9.575-.176-2.688-.341-5.378-.45-8.07-.044-1.836-.076-3.671-.025-5.506 0-2.892-4.089-2.892-4.089 0" style="fill:#03458e;fill-opacity:1;stroke-width:.360517"/><path d="M133.915 28.459v1.469c-.027.708-.282 1.383-.484 2.057-.296.877-.595 1.758-.993 2.597a2.86 2.86 0 0 1-.913 1.005c-.448.278-.935.487-1.414.705.114-.081-.994.437-.802.333a1.1 1.1 0 0 1 .345-.076c.098-.003-.01-.003-.048-.004-1.309-.022-.586-.041-1.395 3.602-.019.09.76.493.91.578.55.285 1.142.504 1.665.837.67.37 1.247.862 1.798 1.387.558.55.953 1.227 1.302 1.921.529 1.104.9 2.273 1.21 3.455.416 1.606.717 3.238 1.014 4.87.204 1.235.395 2.472.69 3.69.213.818.549 1.589.963 2.325.204.34.392.667.655.98.284.298.564.452.96.618.099.041.407.125.312.08-1.099-.532-.298.014-.923-.444.368.329.748.46 1.209.593q.24.04.483.044c2.892.049 2.96-4.04.068-4.088q.103.004.205.024c.354.11.499.146.777.396-.623-.477-.048-.085-1.058-.544-.07-.031.156.03.226.063.308.14.526.245.739.476.165.212.082.092.238.368.041.05-.057-.118-.088-.177-.132-.241-.086-.152-.183-.305l-.068-.11a5.5 5.5 0 0 1-.545-1.278c-.289-1.131-.43-2.296-.638-3.444-.316-1.736-.637-3.472-1.082-5.18-.39-1.465-.855-2.916-1.527-4.279-.572-1.097-1.22-2.157-2.123-3.018-.775-.736-1.597-1.414-2.53-1.943a18 18 0 0 0-1.769-.895l-.184-.102c-.052-.028-.186-.135-.152-.088.054.08.252.096.22.186-1.215 3.537-2.747 3.469-1.441 3.49q.163.006.33-.002c.333-.022.659-.089.968-.217.32-.136.637-.283.965-.403.736-.335 1.477-.665 2.14-1.13.423-.322.533-.382.92-.774.518-.521.924-1.15 1.274-1.794.475-1.022.859-2.085 1.208-3.156.316-1.056.658-2.116.655-3.23v-1.47c0-2.89-4.088-2.89-4.088 0zm26.452 6.43v2.318c-.004 1.467-.062 2.4-.138 4.416a397 397 0 0 0-.155 4.76c-.023.35-.023.701-.023 1.051v3.89c0 2.89 4.09 2.89 4.09 0v-1.072c0-7.217.164-6.06.313-13.045v-2.318c0-2.891-4.087-2.891-4.087 0" style="fill:#03458e;fill-opacity:1;stroke-width:.360517"/><path d="M164.613 40.557c.613-.745 1.17-1.043 1.986-1.139.578.004.99.145 1.308.605.206.348.402.7.537 1.075.54 2.668 3.979 2.772 4.033-.12v-.01l.001-.18a4 4 0 0 0-.045-.573 4.4 4.4 0 0 0-.291-.973l.034.118c-.064-.186-.168-.596-.304-.744-.031-.034.075.163.055.122q-.078-.156-.15-.314c-.162-.272-.352-.518-.522-.784a6.1 6.1 0 0 0-1.013-1.109 5.3 5.3 0 0 0-2.245-1.08c-.747-.122-1.504-.2-2.253-.032-.48.11-.952.25-1.41.437q-.896.32-1.7.836c-.436.293-.861.607-1.21 1.003-.503.606-.89 1.195-.9 2.02v.842c0 2.892 3.727 1.45 3.967.248zm20.866 3.41a8.7 8.7 0 0 0-.203-2.276c-.447-1.567-1.6-2.405-2.943-3.184-.78-.412-1.593-.763-2.46-.94-.183-.037-.367-.082-.554-.084-.324-.004-.649.043-.973.064-.272.092-.556.157-.82.274-.818.363-1.54 1.043-2.065 1.76-.143.197-.263.408-.395.611a9.8 9.8 0 0 0-1.092 3.111 10 10 0 0 0-.085 2.128c.15 1.14.856 2.042 1.559 2.903.722.846 1.53 1.609 2.293 2.416.48.525.845 1.12 1.053 1.798.131.557.145 1.131.157 1.7-.109.178-.086.145-.15.22-.505.465-.905.501-1.477.815-.402.19-.856.169-1.29.157-.391-.039-.782-.085-1.133-.272a3 3 0 0 1-.17-.12c.087.055.11.099.065.03-.185-.218-.156-.21-.305-.476a19 19 0 0 1-.432-.766c-.19-.338-.305-.548-.546-.868l.065.082c-.325-.445-.43-.597-.866-.892-1.942-.422-3.298.902-2.313 3.474l.085.17c.155.296.3.531.432.783.218.39.44.777.74 1.112.441.514.954.932 1.579 1.206a7.5 7.5 0 0 0 2.725.624c1.158.015 2.311-.106 3.348-.669.95-.531 1.887-1.109 2.663-1.883.14-.166.292-.323.422-.499.493-.673.681-1.496.646-2.319-.023-.98-.082-1.967-.37-2.913-.44-1.258-1.046-2.329-1.962-3.308-.701-.739-1.437-1.443-2.109-2.209-.381-.448-.117-.038-.478-.531a1.4 1.4 0 0 1-.128-.217c-.044-.098-.03-.068-.055-.18-.01-.278.027-.552.07-.823.08-.572.287-1.109.535-1.63.101-.188.116-.238.254-.403.12-.144.196-.24.261-.266.137-.054.363-.008.447.022.329.126.487.209.807.363q.186.097.368.2c.027.016.486.278.558.35.1.098.039.07.085.177.123.443.075.722.068 1.179 0 2.891 4.09 2.891 4.09 0zm-39.265 2.775q.624-.414 1.267-.794c.603-.354 1.123-.826 1.658-1.269.589-.55 1.206-1.067 1.81-1.6.487-.411.98-.817 1.458-1.242q.295-.264.577-.541c.559-.59.664-1.228.667-1.99 0-.44.01-.878-.063-1.316-.027-.17-.078-.336-.117-.504-.311-.99-.951-1.771-1.717-2.444a10.4 10.4 0 0 0-1.976-1.104c-.538-.225-1.108-.312-1.685-.34-.765-.057-1.505.082-2.23.314-.967.331-1.666 1.041-2.289 1.82-.578.776-.906 1.682-1.19 2.596q-.444 1.423-.66 2.897c-.127.953-.131 1.913-.14 2.872 0 .797.14 1.585.279 2.369.133.699.336 1.381.575 2.05.208.555.501 1.07.823 1.566.4.61.917 1.106 1.495 1.548.636.51 1.355.895 2.091 1.24.54.267 1.107.463 1.69.606.572.134 1.153.153 1.734.123a9.5 9.5 0 0 0 1.657-.292c.682-.211 1.265-.613 1.818-1.05a8.6 8.6 0 0 0 1.115-1.101 5 5 0 0 0 .624-.945c.169-.385.226-.793.234-1.208v-.22c-.033-2.891-4.122-2.847-4.09.044v.117c.011-.058.071-.351.134-.426.106-.197-.016.02.168-.26.016-.025-.037.047-.055.07q-.082.104-.16.211c-.16.18-.32.363-.517.518-.13.15-.293.236-.46.327-.262.158-1.215.15-1.277.11-.325-.053-.619-.216-.916-.344a5.9 5.9 0 0 1-1.335-.79c-.058-.041-.11-.086-.17-.122-.006-.004.005.028 0 .022-.141-.127-.25-.292-.371-.436a4 4 0 0 1-.382-.684 9.5 9.5 0 0 1-.4-1.397c-.096-.534-.2-1.068-.214-1.612.007-.775.004-1.553.096-2.321.11-.777.293-1.537.525-2.287.13-.433.267-.865.49-1.262.116-.154.273-.321.345-.463.271-.093.514-.157.808-.113.082 0 .164-.004.243.018.327.125.617.327.936.463.07.048.092.059.154.123.054.057.226.259.23.259.014 0 .007-.03.01-.045.01.019.014.04.027.057.004.005.02-.008.02 0 .02.245-.014.494.002.74 0 .054-.008.109 0 .163 0 .008.003-.016.005-.026.014-.064.018-.13.04-.192.183-.522.163-.418.514-.866q-.21.207-.43.403c-.474.421-.966.822-1.448 1.233-.57.504-1.155.987-1.706 1.513-.372.306-.729.64-1.138.902a27 27 0 0 0-1.287.806c-2.48 1.487-.376 4.994 2.104 3.506" style="fill:#03458e;fill-opacity:1;stroke-width:.360517"/><text xml:space="preserve" x="88.152" y="70.889" style="font-size:9.62153px;letter-spacing:1.10678px;fill:#bd2222;fill-opacity:1;stroke-width:.360517"><tspan x="88.152" y="70.889" dx="0 0 0 0 0 0.068129115 0 0 0 0.068129115 0 0 0.068129115 0 0" rotate="0 0 0 0 0 0 0 0 0 0 0 0 0 0 0 0" style="font-style:normal;font-variant:normal;font-weight:700;font-stretch:normal;font-size:9.62153px;font-family:sans-serif;-inkscape-font-specification:sans-serif;letter-spacing:1.10678px;stroke-width:.360517">Bird Club at Penn</tspan></text></svg>
